<?xml version="1.0" encoding="UTF-8" standalone="no"?>
<!DOCTYPE svg PUBLIC "-//W3C//DTD SVG 1.1//EN"
        "http://www.w3.org/Graphics/SVG/1.1/DTD/svg11.dtd">
<!-- Generated by graphviz version 10.0.1 (20240210.2158)
 -->
<!-- Title: G Pages: 1 -->
<svg width="199pt" height="260pt"
     viewBox="0.00 0.00 198.83 260.00" xmlns="http://www.w3.org/2000/svg" xmlns:xlink="http://www.w3.org/1999/xlink">
    <g id="graph0" class="graph" transform="scale(1 1) rotate(0) translate(4 256)">
        <title>G</title>
        <polygon fill="white" stroke="none" points="-4,4 -4,-256 194.83,-256 194.83,4 -4,4"/>
        <!-- 1 -->
        <g id="node1" class="node">
            <title>1</title>
            <ellipse fill="none" stroke="black" cx="114" cy="-234" rx="27" ry="18"/>
            <text text-anchor="middle" x="114" y="-228.95" font-family="Times,serif" font-size="14.00">1</text>
        </g>
        <!-- 2 -->
        <g id="node2" class="node">
            <title>2</title>
            <ellipse fill="none" stroke="black" cx="27" cy="-90" rx="27" ry="18"/>
            <text text-anchor="middle" x="27" y="-84.95" font-family="Times,serif" font-size="14.00">2</text>
        </g>
        <!-- 1&#45;&gt;2 -->
        <g id="edge1" class="edge">
            <title>1&#45;&gt;2</title>
            <path fill="none" stroke="black" d="M92.46,-222.93C75.92,-214.02 53.96,-199.43 42,-180 30.94,-162.02 27.36,-138.32 26.46,-119.9"/>
            <polygon fill="black" stroke="black" points="29.96,-119.83 26.24,-109.91 22.96,-119.98 29.96,-119.83"/>
        </g>
        <!-- 3 -->
        <g id="node3" class="node">
            <title>3</title>
            <ellipse fill="none" stroke="black" cx="78" cy="-162" rx="27" ry="18"/>
            <text text-anchor="middle" x="78" y="-156.95" font-family="Times,serif" font-size="14.00">3</text>
        </g>
        <!-- 1&#45;&gt;3 -->
        <g id="edge2" class="edge">
            <title>1&#45;&gt;3</title>
            <path fill="none" stroke="black" d="M105.65,-216.76C101.42,-208.55 96.19,-198.37 91.42,-189.09"/>
            <polygon fill="black" stroke="black" points="94.68,-187.79 87,-180.49 88.46,-190.99 94.68,-187.79"/>
        </g>
        <!-- 6 -->
        <g id="node4" class="node">
            <title>6</title>
            <ellipse fill="none" stroke="black" cx="150" cy="-162" rx="27" ry="18"/>
            <text text-anchor="middle" x="150" y="-156.95" font-family="Times,serif" font-size="14.00">6</text>
        </g>
        <!-- 1&#45;&gt;6 -->
        <g id="edge3" class="edge">
            <title>1&#45;&gt;6</title>
            <path fill="none" stroke="black" d="M122.35,-216.76C126.58,-208.55 131.81,-198.37 136.58,-189.09"/>
            <polygon fill="black" stroke="black" points="139.54,-190.99 141,-180.49 133.32,-187.79 139.54,-190.99"/>
        </g>
        <!-- 4 -->
        <g id="node5" class="node">
            <title>4</title>
            <ellipse fill="none" stroke="black" cx="82" cy="-18" rx="27" ry="18"/>
            <text text-anchor="middle" x="82" y="-12.95" font-family="Times,serif" font-size="14.00">4</text>
        </g>
        <!-- 2&#45;&gt;4 -->
        <g id="edge4" class="edge">
            <title>2&#45;&gt;4</title>
            <path fill="none" stroke="black" d="M39.21,-73.46C46.11,-64.67 54.91,-53.48 62.73,-43.53"/>
            <polygon fill="black" stroke="black" points="65.47,-45.71 68.89,-35.68 59.96,-41.38 65.47,-45.71"/>
        </g>
        <!-- 3&#45;&gt;2 -->
        <g id="edge5" class="edge">
            <title>3&#45;&gt;2</title>
            <path fill="none" stroke="black" d="M66.68,-145.46C60.28,-136.67 52.12,-125.48 44.87,-115.53"/>
            <polygon fill="black" stroke="black" points="47.9,-113.74 39.18,-107.72 42.24,-117.86 47.9,-113.74"/>
        </g>
        <!-- 3&#45;&gt;4 -->
        <g id="edge6" class="edge">
            <title>3&#45;&gt;4</title>
            <path fill="none" stroke="black" d="M78.49,-143.59C79.17,-119.61 80.39,-76.14 81.2,-47.42"/>
            <polygon fill="black" stroke="black" points="84.69,-47.72 81.48,-37.62 77.7,-47.52 84.69,-47.72"/>
        </g>
        <!-- 5 -->
        <g id="node6" class="node">
            <title>5</title>
            <ellipse fill="none" stroke="black" cx="145" cy="-90" rx="27" ry="18"/>
            <text text-anchor="middle" x="145" y="-84.95" font-family="Times,serif" font-size="14.00">5</text>
        </g>
        <!-- 3&#45;&gt;5 -->
        <g id="edge7" class="edge">
            <title>3&#45;&gt;5</title>
            <path fill="none" stroke="black" d="M91.88,-146.5C100.96,-137.02 112.99,-124.44 123.32,-113.66"/>
            <polygon fill="black" stroke="black" points="125.7,-116.22 130.09,-106.58 120.65,-111.38 125.7,-116.22"/>
        </g>
        <!-- 6&#45;&gt;5 -->
        <g id="edge9" class="edge">
            <title>6&#45;&gt;5</title>
            <path fill="none" stroke="black" d="M148.76,-143.7C148.24,-136.41 147.62,-127.73 147.04,-119.54"/>
            <polygon fill="black" stroke="black" points="150.53,-119.34 146.33,-109.61 143.55,-119.84 150.53,-119.34"/>
        </g>
        <!-- 4&#45;&gt;1 -->
        <g id="edge8" class="edge">
            <title>4&#45;&gt;1</title>
            <path fill="none" stroke="black" d="M107.06,-24.98C130.48,-32.01 164.27,-46.14 181,-72 190.42,-86.56 194.58,-163.03 186,-180 177.64,-196.54 161.4,-209.19 146.47,-217.97"/>
            <polygon fill="black" stroke="black" points="144.88,-214.85 137.77,-222.71 148.23,-220.99 144.88,-214.85"/>
        </g>
    </g>
</svg>
