<?xml version="1.0" encoding="UTF-8" standalone="no"?>
<!DOCTYPE svg PUBLIC "-//W3C//DTD SVG 1.1//EN"
        "http://www.w3.org/Graphics/SVG/1.1/DTD/svg11.dtd">
<!-- Generated by graphviz version 10.0.1 (20240210.2158)
 -->
<!-- Title: G Pages: 1 -->
<svg width="210pt" height="310pt"
     viewBox="0.00 0.00 209.75 309.50" xmlns="http://www.w3.org/2000/svg" xmlns:xlink="http://www.w3.org/1999/xlink">
    <g id="graph0" class="graph" transform="scale(1 1) rotate(0) translate(4 305.5)">
        <title>G</title>
        <polygon fill="white" stroke="none" points="-4,4 -4,-305.5 205.75,-305.5 205.75,4 -4,4"/>
        <!-- 0 -->
        <g id="node1" class="node">
            <title>0</title>
            <ellipse fill="none" stroke="black" cx="125" cy="-283.5" rx="27" ry="18"/>
            <text text-anchor="middle" x="125" y="-278.45" font-family="Times,serif" font-size="14.00">0</text>
        </g>
        <!-- 1 -->
        <g id="node2" class="node">
            <title>1</title>
            <ellipse fill="none" stroke="black" cx="27" cy="-106.5" rx="27" ry="18"/>
            <text text-anchor="middle" x="27" y="-101.45" font-family="Times,serif" font-size="14.00">1</text>
        </g>
        <!-- 0&#45;&gt;1 -->
        <g id="edge1" class="edge">
            <title>0&#45;&gt;1</title>
            <path fill="none" stroke="black" d="M103.51,-272.03C82.69,-260.63 52.13,-240.3 37.25,-213 24.4,-189.41 22.87,-158.42 23.93,-136.14"/>
            <polygon fill="black" stroke="black" points="27.41,-136.49 24.62,-126.27 20.43,-136 27.41,-136.49"/>
            <text text-anchor="middle" x="41.38" y="-189.95" font-family="Times,serif" font-size="14.00">3</text>
        </g>
        <!-- 2 -->
        <g id="node3" class="node">
            <title>2</title>
            <ellipse fill="none" stroke="black" cx="80" cy="-195" rx="27" ry="18"/>
            <text text-anchor="middle" x="80" y="-189.95" font-family="Times,serif" font-size="14.00">2</text>
        </g>
        <!-- 0&#45;&gt;2 -->
        <g id="edge2" class="edge">
            <title>0&#45;&gt;2</title>
            <path fill="none" stroke="black" d="M116.54,-266.23C110.17,-253.98 101.3,-236.93 93.89,-222.7"/>
            <polygon fill="black" stroke="black" points="97,-221.09 89.28,-213.83 90.79,-224.32 97,-221.09"/>
            <text text-anchor="middle" x="110.38" y="-234.2" font-family="Times,serif" font-size="14.00">2</text>
        </g>
        <!-- 5 -->
        <g id="node4" class="node">
            <title>5</title>
            <ellipse fill="none" stroke="black" cx="152" cy="-195" rx="27" ry="18"/>
            <text text-anchor="middle" x="152" y="-189.95" font-family="Times,serif" font-size="14.00">5</text>
        </g>
        <!-- 0&#45;&gt;5 -->
        <g id="edge3" class="edge">
            <title>0&#45;&gt;5</title>
            <path fill="none" stroke="black" d="M130.33,-265.41C134.03,-253.56 139.04,-237.52 143.31,-223.84"/>
            <polygon fill="black" stroke="black" points="146.59,-225.09 146.23,-214.5 139.91,-223 146.59,-225.09"/>
            <text text-anchor="middle" x="144.38" y="-234.2" font-family="Times,serif" font-size="14.00">7</text>
        </g>
        <!-- 3 -->
        <g id="node5" class="node">
            <title>3</title>
            <ellipse fill="none" stroke="black" cx="90" cy="-18" rx="27" ry="18"/>
            <text text-anchor="middle" x="90" y="-12.95" font-family="Times,serif" font-size="14.00">3</text>
        </g>
        <!-- 1&#45;&gt;3 -->
        <g id="edge4" class="edge">
            <title>1&#45;&gt;3</title>
            <path fill="none" stroke="black" d="M38.26,-90.04C47.61,-77.2 61.08,-58.7 71.94,-43.8"/>
            <polygon fill="black" stroke="black" points="74.67,-45.99 77.73,-35.85 69.01,-41.87 74.67,-45.99"/>
            <text text-anchor="middle" x="68.38" y="-57.2" font-family="Times,serif" font-size="14.00">5</text>
        </g>
        <!-- 2&#45;&gt;1 -->
        <g id="edge5" class="edge">
            <title>2&#45;&gt;1</title>
            <path fill="none" stroke="black" d="M70.28,-178.13C62.56,-165.53 51.61,-147.66 42.65,-133.05"/>
            <polygon fill="black" stroke="black" points="45.84,-131.55 37.63,-124.85 39.87,-135.2 45.84,-131.55"/>
            <text text-anchor="middle" x="62.38" y="-145.7" font-family="Times,serif" font-size="14.00">1</text>
        </g>
        <!-- 2&#45;&gt;3 -->
        <g id="edge6" class="edge">
            <title>2&#45;&gt;3</title>
            <path fill="none" stroke="black" d="M81,-176.58C82.72,-146.44 86.27,-84.3 88.36,-47.7"/>
            <polygon fill="black" stroke="black" points="91.85,-48.04 88.92,-37.86 84.86,-47.64 91.85,-48.04"/>
            <text text-anchor="middle" x="89.38" y="-101.45" font-family="Times,serif" font-size="14.00">4</text>
        </g>
        <!-- 4 -->
        <g id="node6" class="node">
            <title>4</title>
            <ellipse fill="none" stroke="black" cx="147" cy="-106.5" rx="27" ry="18"/>
            <text text-anchor="middle" x="147" y="-101.45" font-family="Times,serif" font-size="14.00">4</text>
        </g>
        <!-- 2&#45;&gt;4 -->
        <g id="edge7" class="edge">
            <title>2&#45;&gt;4</title>
            <path fill="none" stroke="black" d="M91.98,-178.54C102.08,-165.5 116.7,-146.62 128.34,-131.6"/>
            <polygon fill="black" stroke="black" points="130.84,-134.08 134.2,-124.03 125.31,-129.79 130.84,-134.08"/>
            <text text-anchor="middle" x="123.38" y="-145.7" font-family="Times,serif" font-size="14.00">6</text>
        </g>
        <!-- 5&#45;&gt;4 -->
        <g id="edge9" class="edge">
            <title>5&#45;&gt;4</title>
            <path fill="none" stroke="black" d="M151.01,-176.91C150.34,-165.26 149.43,-149.55 148.65,-136.02"/>
            <polygon fill="black" stroke="black" points="152.16,-136.14 148.09,-126.36 145.17,-136.55 152.16,-136.14"/>
            <text text-anchor="middle" x="153.38" y="-145.7" font-family="Times,serif" font-size="14.00">2</text>
        </g>
        <!-- 3&#45;&gt;0 -->
        <g id="edge8" class="edge">
            <title>3&#45;&gt;0</title>
            <path fill="none" stroke="black" d="M112.16,-28.59C134.41,-39.54 167.55,-59.73 183,-88.5 196.83,-114.25 196.69,-190.47 188,-213 180.55,-232.32 164.96,-249.59 151.15,-262.09"/>
            <polygon fill="black" stroke="black" points="148.88,-259.42 143.59,-268.59 153.45,-264.72 148.88,-259.42"/>
            <text text-anchor="middle" x="198.38" y="-145.7" font-family="Times,serif" font-size="14.00">1</text>
        </g>
    </g>
</svg>
